<mxfile host="app.diagrams.net" modified="2024-02-19T00:39:24.777Z" agent="Mozilla/5.0 (Windows NT 10.0; Win64; x64) AppleWebKit/537.36 (KHTML, like Gecko) Chrome/121.0.0.0 Safari/537.36" version="23.1.5" etag="sy3pZR_YA6Cg_uae5u3u" type="github">
  <diagram name="페이지-1" id="vnRkVJD5tor_WotnyZZu">
    <mxGraphModel>
      <root>
        <mxCell id="0" />
        <mxCell id="1" parent="0" />
      </root>
    </mxGraphModel>
  </diagram>
</mxfile>
